<svg xmlns="http://www.w3.org/2000/svg" viewBox="0 0 272.97 272.97"><defs><style>.cls-1{fill:#fff;}</style></defs><g id="Layer_2" data-name="Layer 2"><g id="Layer_3" data-name="Layer 3"><path class="cls-1" d="M195.27,0H77.7A77.93,77.93,0,0,0,0,77.7V195.27A77.93,77.93,0,0,0,77.7,273H195.27a77.92,77.92,0,0,0,77.7-77.7V77.7A77.93,77.93,0,0,0,195.27,0Zm58.11,196.62a56.92,56.92,0,0,1-56.76,56.76H74.32a56.92,56.92,0,0,1-56.75-56.76V77.7A56.92,56.92,0,0,1,74.32,21h122.3A56.92,56.92,0,0,1,253.38,77.7Z"/><path class="cls-1" d="M137,72.3a72.13,72.13,0,1,0,72.13,72.13A72.13,72.13,0,0,0,137,72.3Zm.65,124.23a51.65,51.65,0,1,1,51.65-51.64A51.64,51.64,0,0,1,137.64,196.53Z"/><circle class="cls-1" cx="212.15" cy="62.12" r="13.18"/></g></g></svg>